<svg width="67" height="79" viewBox="0 0 67 79" fill="none" xmlns="http://www.w3.org/2000/svg">
<path d="M63.5242 46.0229V57.6044C63.5242 58.457 64.1996 59.132 65.0528 59.132C65.906 59.132 66.5815 58.457 66.5815 57.6044V36.9637C66.5815 34.0505 64.1996 31.6703 61.2845 31.6703H46.2826C46.5315 31.0308 46.6736 30.3558 46.6381 29.6808C46.5315 27.0519 44.3629 24.9913 41.6967 24.9913H38.0706C37.5729 24.9913 37.0397 24.9558 36.542 24.9203C32.7382 24.565 29.5387 21.6874 28.6499 17.7795C28.4722 17.0335 28.1878 16.3585 27.8323 15.7545C31.174 14.9374 33.6625 11.9177 33.6625 8.32954C33.6625 4.10192 30.2141 0.691406 26.0193 0.691406C21.7889 0.691406 18.3761 4.13745 18.3761 8.32954C18.3761 9.82164 18.8027 11.2072 19.5137 12.344C17.5229 12.9124 15.781 14.2624 14.8567 16.1808C12.3682 21.2256 11.0529 26.8742 11.0529 32.5229V38.136C11.0529 40.8715 11.6217 43.5715 12.7237 46.0584L10.9462 55.686L3.72963 64.9938C3.69409 65.0294 3.65853 65.0649 3.65853 65.1004L0.850098 69.6833C0.530151 70.1807 0.423506 70.7846 0.565705 71.3885C0.707904 71.957 1.0634 72.4543 1.56109 72.7741L10.6974 78.4227C10.9462 78.5648 11.2306 78.6359 11.515 78.6359C11.6216 78.6359 11.7638 78.6359 11.8705 78.6004C12.2615 78.4938 12.617 78.2451 12.8303 77.9254C13.8968 76.1846 14.2168 74.1596 13.7546 72.1701C13.6124 71.6017 13.4347 71.0333 13.1503 70.5359L16.4564 66.8412L15.9587 70.8557C15.9587 70.8912 15.9587 70.9267 15.9587 70.9622C15.9587 70.9978 15.9587 70.9978 15.9587 71.0333V77.1083C15.9587 77.9609 16.6342 78.6359 17.4874 78.6359H28.9343C29.7875 78.6359 30.463 77.9609 30.463 77.1083C30.463 74.6214 29.2543 72.4188 27.4413 71.0333L29.8942 56.1833C30.3919 53.2347 30.143 50.1794 29.2543 47.3373L26.2681 37.9229V31.7768C29.8942 33.7308 33.9469 34.761 38.1417 34.761H40.7368C40.4169 35.436 40.2392 36.2176 40.2392 37.0347V77.1083C40.2392 77.9609 40.9146 78.6359 41.7678 78.6359C42.621 78.6359 43.2964 77.9609 43.2964 77.1083V46.0939H63.5242V46.0229ZM63.5242 36.9637V42.9676H43.1542V36.9637C43.1542 35.7203 44.1852 34.69 45.4294 34.69H61.2845C62.4932 34.69 63.5242 35.7203 63.5242 36.9637ZM25.9837 3.67562C28.5077 3.67562 30.5696 5.73612 30.5696 8.25848C30.5696 10.7808 28.5077 12.8414 25.9837 12.8414C23.4597 12.8414 21.3978 10.7808 21.3978 8.25848C21.3623 5.73612 23.4241 3.67562 25.9837 3.67562ZM10.6974 74.8346L3.76518 70.5359L5.36491 67.9425L8.63549 69.9675C9.66643 70.607 10.413 71.6017 10.6974 72.8096C10.8396 73.5201 10.8396 74.1951 10.6974 74.8346ZM11.2306 67.978L7.1424 65.4557L13.5769 57.2136C13.7191 57.036 13.8257 56.7873 13.8613 56.5386L15.07 50.0373C15.7454 50.9255 16.492 51.7781 17.3096 52.5241L18.1273 53.2702L17.0963 61.4057L11.2306 67.978ZM18.8738 75.5451V72.5254H22.7132C24.7039 72.5254 26.4103 73.8043 27.0147 75.5806H18.8738V75.5451ZM26.7658 55.6504L24.4906 69.4701H19.0871L20.0114 62.2938L21.2201 52.9149C21.2912 52.4176 21.1134 51.9557 20.7579 51.6004L19.3715 50.3215C16.3853 47.5149 14.5012 43.6781 14.1457 39.6281H23.4952L26.2326 48.2255C26.9791 50.6057 27.1569 53.1636 26.7658 55.6504ZM25.486 27.7624C24.384 26.9808 23.3531 26.1282 22.3932 25.2045C21.7889 24.6005 20.829 24.6005 20.2247 25.2045C19.6203 25.8084 19.6203 26.7677 20.2247 27.3716C21.1134 28.2598 22.0733 29.0768 23.0686 29.8229C23.0686 29.8584 23.0686 29.8584 23.0686 29.8584V36.6084H14.039V32.5229C14.039 27.3361 15.2477 22.1848 17.5229 17.5308C18.305 15.9322 20.0114 14.9729 21.7889 15.1506C23.6374 15.3282 25.1661 16.6427 25.5927 18.49C26.8014 23.6413 31.0673 27.4782 36.1509 27.9755C36.7553 28.0466 37.3596 28.0466 37.964 28.0466H41.59C42.621 28.0466 43.4742 28.8282 43.5097 29.8229C43.5453 30.3203 43.332 30.8176 43.012 31.1729C42.6565 31.5281 42.1944 31.7413 41.6967 31.7413H37.9995C33.4847 31.6347 29.1832 30.3203 25.486 27.7624Z" fill="#92C7D9"/>
</svg>
