<svg width="86" height="88" viewBox="0 0 86 88" fill="none" xmlns="http://www.w3.org/2000/svg">
<path d="M78.9072 27.7383C78.4451 25.287 76.5254 23.333 74.1436 22.8356C73.5748 17.7554 69.3444 13.7765 64.2608 13.7765H57.3997C56.7598 6.17385 50.5031 0.169922 42.931 0.169922C35.3234 0.169922 29.1022 6.17385 28.4623 13.7765H21.6012C16.4821 13.7765 12.2517 17.7554 11.7184 22.8356C9.33661 23.333 7.41692 25.2514 6.95478 27.7383C3.29316 28.2712 0.449219 31.504 0.449219 35.4119V83.5144C0.449219 84.2249 1.01801 84.7933 1.69346 84.7933H20.357V86.0723C20.357 86.392 20.4992 86.7473 20.7125 86.9604C20.9258 87.2091 21.2813 87.3512 21.6012 87.3512H64.2608C64.5808 87.3512 64.9007 87.2091 65.1496 86.9604C65.3984 86.7118 65.505 86.392 65.505 86.0723V84.7933H84.1686C84.844 84.7933 85.4128 84.2249 85.4128 83.5144V35.4119C85.4128 31.504 82.6044 28.2712 78.9072 27.7383ZM6.81257 82.2355H2.90211V35.4119C2.90211 32.9606 4.57294 30.9001 6.81257 30.3672V82.2355ZM42.931 2.72781C49.1522 2.72781 54.2713 7.5949 54.9112 13.7765H35.9989C36.5676 10.437 39.4472 7.80805 42.931 7.80805C45.2418 7.80805 47.4458 8.98042 48.7611 10.9699C49.1522 11.5383 49.9343 11.6804 50.5031 11.2896C51.0719 10.8988 51.2141 10.0817 50.823 9.51331C49.0455 6.84885 46.0949 5.25017 42.931 5.25017C38.0963 5.25017 34.0791 8.98042 33.4748 13.7765H30.9508C31.5907 7.5949 36.7098 2.72781 42.931 2.72781ZM21.6012 16.3699H64.2608C68.3846 16.3699 71.7262 19.8159 71.7262 24.0435C71.7262 28.2711 68.3846 31.7172 64.2608 31.7172H21.6012C17.4775 31.7172 14.1358 28.2711 14.1358 24.0435C14.1358 19.8159 17.4775 16.3699 21.6012 16.3699ZM41.6868 84.7933H31.5551V49.3737C31.5551 48.7698 32.0528 48.2724 32.6216 48.2724H41.6868V84.7933ZM54.3069 84.7933H44.1753V48.2724H53.2404C53.8448 48.2724 54.3069 48.7698 54.3069 49.3737V84.7933ZM76.561 82.2355H65.505V53.3882C65.505 52.6777 64.9362 52.1092 64.2608 52.1092C63.5854 52.1092 63.0166 52.6777 63.0166 53.3882V84.7933H56.7954V49.3737V49.3382V49.3027C56.7598 48.379 56.4043 47.4908 55.7644 46.8158C55.1245 46.1408 54.2713 45.7856 53.347 45.75H53.3115H53.276H32.6927H32.6572H32.6216C31.6973 45.7856 30.8441 46.1408 30.2042 46.8158C29.5644 47.4908 29.1733 48.379 29.1733 49.3027V49.3382V49.3737V84.7933H22.9521V48.2724C22.9521 45.8922 23.8409 43.654 25.5117 41.9487C27.1825 40.2435 29.351 39.3198 31.6618 39.3198H54.4135C56.7243 39.3198 58.9284 40.2435 60.5636 41.9487C62.1989 43.654 63.1232 45.8922 63.1232 48.2724C63.1232 48.9829 63.692 49.5513 64.3674 49.5513C65.0429 49.5513 65.6117 48.9829 65.6117 48.2724C65.6117 45.1816 64.4385 42.304 62.3411 40.1369C60.2081 37.9343 57.3286 36.7619 54.4135 36.7619H31.6618C28.6045 36.7619 25.7961 38.0409 23.7342 40.1369C21.6368 42.304 20.4636 45.1816 20.4636 48.2724V82.2355H9.40771V28.9461C9.40771 27.3475 10.4387 25.9619 11.8251 25.4646C12.5361 30.4027 16.6598 34.204 21.6723 34.204H64.3319C69.3444 34.204 73.5037 30.4027 74.1791 25.4646C75.6011 25.9619 76.5965 27.3119 76.5965 28.9461V82.2355H76.561ZM82.9244 82.2355H79.0139V30.3672C81.2535 30.9001 82.9244 32.9606 82.9244 35.4119V82.2355Z" fill="#2D5077"/>
</svg>
