<svg width="79" height="78" viewBox="0 0 79 78" fill="none" xmlns="http://www.w3.org/2000/svg">
<path d="M36.4028 53.8345V41.7556H24.1382C22.4674 41.7556 21.1165 40.4056 21.1165 38.7359C21.1165 37.0662 22.4674 35.7162 24.1382 35.7162H36.4028V23.4596C36.4028 21.7899 37.7537 20.4399 39.4245 20.4399C41.0954 20.4399 42.4463 21.7899 42.4463 23.4596V35.7162H54.5332C56.204 35.7162 57.5549 37.0662 57.5549 38.7359C57.5549 40.4056 56.204 41.7556 54.5332 41.7556H42.4463V53.8345C42.4463 55.5043 41.0954 56.8543 39.4245 56.8543C37.7537 56.8543 36.4028 55.5043 36.4028 53.8345ZM66.7978 11.3807C59.4746 4.06232 49.7695 0.0478516 39.4245 0.0478516C29.0796 0.0478516 19.3745 4.06232 12.0513 11.3807C4.72806 18.6991 0.710938 28.3978 0.710938 38.7359C0.710938 49.074 4.72806 58.7727 12.0513 66.0911C19.3745 73.4095 29.0796 77.4239 39.4245 77.4239C46.4989 77.4239 53.4311 75.5055 59.439 71.8463C60.861 70.9937 61.3231 69.1108 60.4699 67.6897C59.6167 66.2687 57.7326 65.8068 56.3106 66.6595C51.227 69.7503 45.3969 71.3489 39.4245 71.3489C21.4009 71.3489 6.75438 56.7121 6.75438 38.7004C6.75438 20.6886 21.4009 6.05179 39.4245 6.05179C57.4482 6.05179 72.0947 20.6886 72.0947 38.7004C72.0947 45.1306 70.175 51.3832 66.549 56.8187C65.6247 58.2042 65.9801 60.0871 67.3666 61.0108C68.753 61.9345 70.6372 61.5792 71.5615 60.1937C75.863 53.7635 78.1026 46.3385 78.1026 38.7359C78.1382 28.3978 74.0855 18.6636 66.7978 11.3807Z" fill="#92C7D9"/>
</svg>
