<svg width="77" height="77" viewBox="0 0 77 77" fill="none" xmlns="http://www.w3.org/2000/svg">
<path d="M24.2335 3.58452C19.5409 5.46741 15.3461 8.27398 11.72 11.8621C8.1295 15.4503 5.32108 19.6779 3.43695 24.3673C1.58837 28.8792 0.664062 33.6752 0.664062 38.5778C0.664062 43.4804 1.58837 48.2765 3.43695 52.7883C5.32108 57.4778 8.1295 61.6699 11.72 65.2935C15.3105 68.8817 19.5409 71.6882 24.2335 73.5711C28.7483 75.4185 33.5475 76.3422 38.4533 76.3422C43.3592 76.3422 48.1584 75.4185 52.6732 73.5711C57.3658 71.6882 61.5606 68.8817 65.1867 65.2935C68.7772 61.7054 71.5856 57.4778 73.4697 52.7883C75.3183 48.2765 76.2426 43.4804 76.2426 38.5778C76.2426 33.6752 75.3183 28.8792 73.4697 24.3673C71.5856 19.6779 68.7772 15.4858 65.1867 11.8621C61.5961 8.23845 57.3658 5.46741 52.6732 3.58452C48.1584 1.73716 43.3592 0.813477 38.4533 0.813477C33.5475 0.813477 28.7483 1.73716 24.2335 3.58452ZM10.1203 54.458C8.30725 53.3212 6.63641 52.0067 5.14333 50.4436C2.86815 44.0489 2.4771 37.1568 4.00574 30.62C4.71673 29.2344 5.49882 27.8844 6.42311 26.6055C6.70751 26.2147 6.95636 25.7884 7.27631 25.3976L15.8082 30.4423C15.8082 30.5134 15.8082 30.5844 15.8082 30.6555C15.7727 35.2384 16.2348 39.7857 17.1946 44.262C17.1946 44.2975 17.1946 44.2975 17.1946 44.2975L10.5824 54.6712C10.4047 54.6357 10.2625 54.5646 10.1203 54.458ZM35.4672 71.9725C36.9247 72.7185 38.4533 73.358 40.0175 73.8553C33.4053 74.1395 26.7575 72.6119 20.8563 69.2014L35.1472 71.7593C35.2539 71.8659 35.3605 71.9369 35.4672 71.9725ZM35.3961 69.4146L18.5455 66.3948C16.5548 64.0146 14.8128 61.4567 13.2842 58.7567C12.8931 58.0817 12.4666 57.4067 12.1466 56.6962L18.7588 46.3581C18.901 46.3936 19.0788 46.4291 19.2565 46.4646C23.3803 47.566 27.6107 48.3475 31.8411 48.987C32.0899 49.0225 32.3032 49.058 32.481 49.058L40.4086 62.7356C39.0221 64.654 37.6357 66.5725 36.2137 68.4909C35.9293 68.8106 35.6805 69.0948 35.3961 69.4146ZM63.4803 63.5883C62.1294 64.9383 60.7074 66.1462 59.2143 67.2119C58.9655 65.2225 58.5389 63.3041 57.9345 61.4212L66.3953 45.6831C68.7061 44.6173 70.9813 43.4094 73.0431 41.9173C73.3275 41.7397 73.5408 41.491 73.7186 41.2778C73.1142 49.4133 69.7015 57.3712 63.4803 63.5883ZM63.0892 43.1607C63.4092 43.7647 63.7291 44.3686 64.0135 44.9725L55.8371 60.1778C55.8016 60.1778 55.7305 60.2133 55.6949 60.2133C51.2868 61.0304 46.8431 61.4922 42.3638 61.4922L34.2229 47.4239C35.5027 45.0791 36.7469 42.6989 37.9912 40.3541C38.8444 38.7555 39.662 37.1213 40.5152 35.5226L57.3657 33.7818C59.4276 36.8015 61.3829 39.8923 63.0892 43.1607ZM59.6765 25.1134C58.8944 27.2094 58.0056 29.3055 57.1524 31.4015L40.7285 33.0713C40.5152 32.8226 40.3375 32.5739 40.1242 32.3252C38.1689 30.1226 36.2493 27.9555 34.294 25.7529C34.294 25.7173 34.3296 25.7173 34.3296 25.6818C33.5475 24.9002 32.7654 24.1187 31.9833 23.3371L36.5692 9.58845C36.8891 9.51739 37.2091 9.44634 37.529 9.41082C40.0175 9.16213 42.506 8.87792 44.9945 8.73582C46.5231 8.66476 48.0517 8.59371 49.6159 8.70029L60.9207 21.4542C60.4941 22.6621 60.1386 23.9055 59.6765 25.1134ZM63.4803 13.5674C66.6086 16.6937 69.026 20.2463 70.7324 24.0476C68.635 22.591 66.3598 21.3831 63.978 20.4239C63.6225 20.2818 63.2314 20.1397 62.8404 19.9976L51.7134 7.45687C51.7845 6.92398 51.82 6.35556 51.8555 5.82267C56.0859 7.56345 60.032 10.1569 63.4803 13.5674ZM27.113 5.1832C27.1486 5.21872 27.1841 5.25425 27.2196 5.25425C29.7792 6.14241 32.0899 7.42135 34.2585 8.94898L29.9925 21.8095C29.957 21.8095 29.957 21.8095 29.9214 21.845C29.0327 22.2002 28.1439 22.52 27.2908 22.9108C23.7358 24.5094 20.2875 26.3213 17.0525 28.4529L8.62719 23.4792C8.62719 23.2305 8.6983 22.9463 8.7694 22.6976C9.33819 21.2055 9.90699 19.6779 10.5469 18.1858C11.0446 17.049 11.6134 15.9476 12.2177 14.8819C12.6087 14.4555 13.0353 13.9937 13.4619 13.5674C17.479 9.55292 22.2071 6.74635 27.2196 5.04109C27.1841 5.11215 27.1486 5.14767 27.113 5.1832Z" fill="#2D5077"/>
</svg>
