<svg width="93" height="99" viewBox="0 0 93 99" fill="none" xmlns="http://www.w3.org/2000/svg">
<path d="M81.7357 4.0857C80.8114 3.16202 80.8114 1.63439 81.7357 0.675183C82.66 -0.248498 84.1887 -0.248498 85.1129 0.675183L85.4329 0.994918C86.3572 1.9186 86.3572 3.44623 85.4329 4.40543C84.9707 4.86727 84.3664 5.11596 83.7265 5.11596C83.1221 5.11596 82.5178 4.86727 82.0201 4.40543L81.7357 4.0857ZM81.4158 30.8725C85.2196 30.8725 88.348 33.9988 88.348 37.8356C88.348 41.6724 85.2551 44.7987 81.4158 44.7987C77.6119 44.7987 74.4836 41.6724 74.4836 37.8356C74.4836 33.9988 77.6119 30.8725 81.4158 30.8725ZM81.4158 35.6685C80.2426 35.6685 79.2828 36.6277 79.2828 37.8001C79.2828 38.9724 80.2426 39.9316 81.4158 39.9316C82.5889 39.9316 83.5487 38.9724 83.5487 37.8001C83.5487 36.6277 82.5889 35.6685 81.4158 35.6685ZM92.2584 65.6881V68.5658C92.2584 72.3315 89.2012 75.3868 85.4684 75.3868H83.4777V88.3538C83.4777 94.038 78.8562 98.692 73.2038 98.692H19.1327C13.4448 98.692 8.85888 94.0736 8.85888 88.3538V75.3868H6.8681C3.13539 75.3868 0.078125 72.3315 0.078125 68.5658V65.6881C0.078125 61.9223 3.13539 58.8671 6.8681 58.8671H8.85888V51.7619C8.85888 50.4474 9.9254 49.3461 11.2407 49.3461H81.0959C82.4112 49.3461 83.4777 50.4119 83.4777 51.7619V58.8671H85.4684C89.2012 58.8671 92.2584 61.9223 92.2584 65.6881ZM8.82334 63.6987H6.83256C5.73052 63.6987 4.84179 64.5868 4.84179 65.6881V68.5658C4.84179 69.6671 5.73052 70.5552 6.83256 70.5552H8.82334V63.6987ZM78.714 54.1776H13.6225V88.3183C13.6225 91.3736 16.0755 93.8604 19.1327 93.8604H73.2038C76.2255 93.8604 78.714 91.3736 78.714 88.3183V54.1776ZM87.4592 65.6881C87.4592 64.5868 86.5705 63.6987 85.4684 63.6987H83.4777V70.5907H85.4684C86.5705 70.5907 87.4592 69.7026 87.4592 68.6013V65.6881ZM75.1235 19.2554C75.7278 19.2554 76.3322 19.0067 76.8299 18.5449L77.1498 18.2251C78.0741 17.3014 78.0741 15.7738 77.1498 14.8146C76.2255 13.8909 74.6969 13.8909 73.7726 14.8146L73.4527 15.1343C72.5284 16.058 72.5284 17.5857 73.4527 18.5449C73.8793 19.0422 74.4836 19.2554 75.1235 19.2554ZM55.2868 44.6211C55.2868 45.9356 56.3533 47.0369 57.6686 47.0369C58.9839 47.0369 60.0504 45.9711 60.0504 44.6211C60.0504 42.7382 61.579 41.175 63.4632 41.175C65.3473 41.175 66.876 42.7027 66.876 44.6211C66.876 45.9356 67.9425 47.0369 69.2578 47.0369C70.5731 47.0369 71.6396 45.9711 71.6396 44.6211C71.6396 40.0737 67.9424 36.379 63.4276 36.379C58.9484 36.379 55.2868 40.0737 55.2868 44.6211ZM10.5653 41.0329C10.2453 39.754 11.063 38.4395 12.3428 38.1553L38.3296 31.9738L37.8674 30.0198C37.0142 26.3606 39.2539 22.7014 42.9155 21.8133L45.7239 21.1383C49.35 20.2856 53.0116 22.5593 53.9003 26.183L54.3625 28.1369L80.3493 21.9554C81.6291 21.6356 82.9089 22.4527 83.2288 23.7317C83.5488 25.0106 82.7311 26.3251 81.4513 26.6093L13.4448 42.8093C13.267 42.8448 13.0893 42.8803 12.876 42.8803C11.8095 42.8803 10.8141 42.1343 10.5653 41.0329ZM42.56 28.9185L43.0221 30.8725L49.7055 29.2738L49.2433 27.3198C49.03 26.3962 48.2124 25.7922 47.2881 25.7922C47.1459 25.7922 46.9682 25.7922 46.826 25.8633L44.0175 26.5383C42.951 26.7514 42.2756 27.8172 42.56 28.9185Z" fill="#92C7D9"/>
</svg>
