<svg width="53" height="87" viewBox="0 0 53 87" fill="none" xmlns="http://www.w3.org/2000/svg">
<path d="M43.6299 17.2544H37.7287L37.6931 5.49518H39.3284C40.786 5.49518 41.9591 4.32282 41.9591 2.86624C41.9591 1.40967 40.786 0.237305 39.3284 0.237305L13.7327 0.272833C12.2751 0.272833 11.102 1.4452 11.102 2.90177C11.102 4.35834 12.2751 5.53071 13.7327 5.53071H15.368L15.4035 17.2899H9.50227C4.52532 17.2899 0.472656 21.3399 0.472656 26.3491L0.543754 73.2081C0.543754 78.0042 4.34757 81.9476 9.07567 82.1963V83.8304C9.07567 85.287 10.2488 86.4594 11.7063 86.4594C13.1639 86.4594 14.337 85.287 14.337 83.8304V82.1963L38.9018 82.1607V83.7949C38.9018 85.2515 40.075 86.4239 41.5325 86.4239C42.99 86.4239 44.1632 85.2515 44.1632 83.7949V82.1607C48.8913 81.8765 52.6951 77.9331 52.6595 73.1371L52.5884 26.278C52.6595 21.2688 48.6069 17.2188 43.6299 17.2544ZM20.7004 17.2899L20.6649 5.53071L32.4318 5.49518L32.4673 17.2544L20.7004 17.2899ZM30.9032 55.6227H22.3712C17.3943 55.6227 13.3416 59.6726 13.3416 64.6818L13.3772 76.9739H9.60892C7.54704 76.9739 5.84065 75.3042 5.84065 73.2081L5.76956 26.3491C5.76956 24.2885 7.44039 22.5833 9.53782 22.5833L43.6299 22.5122C45.6918 22.5122 47.3982 24.182 47.3982 26.278L47.4693 73.1371C47.4693 75.1976 45.7985 76.9028 43.701 76.9028H39.9328L39.8972 64.6108C39.9683 59.6371 35.8801 55.5871 30.9032 55.6227ZM18.6385 64.6463C18.6385 62.5858 20.3094 60.8805 22.4068 60.8805H30.9387C33.0006 60.8805 34.707 62.5503 34.707 64.6463L34.7425 76.9384L18.7096 76.9739L18.6385 64.6463Z" fill="#2D5077"/>
</svg>
