<svg width="93" height="81" viewBox="0 0 93 81" fill="none" xmlns="http://www.w3.org/2000/svg">
<path d="M80.6312 40.2057C79.4936 39.6372 78.1427 39.7794 76.9696 40.5965L51.0183 56.5122C49.8807 57.2227 48.3521 57.6135 46.7524 57.6135C45.1526 57.6135 43.6596 57.2227 42.4864 56.5122L17.104 40.9517C16.7485 40.7386 14.7933 39.6728 12.9091 40.7386C11.9848 41.2714 10.8828 42.4083 10.8828 44.9307V60.4556C10.8828 65.4648 14.9355 70.5095 22.0099 74.3108C28.9065 78.0055 37.7228 80.0661 46.7524 80.0661C55.8175 80.0661 64.5983 78.0411 71.495 74.3108C78.5693 70.5095 82.622 65.4648 82.622 60.4556V44.0425C82.5865 41.6623 81.52 40.632 80.6312 40.2057ZM77.4317 46.3872V60.4911C77.4317 63.4398 74.2322 67.028 69.042 69.799C62.8919 73.1029 54.9644 74.9148 46.7169 74.9148C38.4694 74.9148 30.5773 73.1029 24.3917 69.799C19.237 67.028 16.0019 63.4753 16.0019 60.4911V46.3872L39.7491 60.9175C41.7043 62.1253 44.1929 62.7648 46.7169 62.7648C49.2409 62.7648 51.7293 62.0898 53.6846 60.9175L77.4317 46.3872Z" fill="#2D5077"/>
<path d="M46.7154 54.9848C48.5284 54.9848 50.2703 54.5229 51.6211 53.7058L90.2992 30.0099C92.0055 28.9441 93.001 27.3809 93.001 25.6401C93.001 23.8993 92.0056 22.3007 90.2637 21.2349L51.5146 1.87311C48.7772 0.23891 44.689 0.23891 41.9162 1.87311L3.27366 21.1638L3.13149 21.2349C1.42511 22.3007 0.429688 23.8638 0.429688 25.6046C0.429688 27.3454 1.42511 28.9441 3.13149 29.9743L41.8095 53.6703C43.1604 54.5229 44.9023 54.9848 46.7154 54.9848ZM44.4046 6.42046L44.5468 6.34941C45.6844 5.67441 47.8174 5.67442 48.9905 6.38494L87.5619 25.6757L48.9549 49.3361C47.8173 50.0111 45.6844 50.0111 44.5824 49.3361L5.97546 25.6757L44.4046 6.42046Z" fill="#2D5077"/>
<path d="M90.724 66.4962C90.5818 66.4252 90.2974 66.2475 90.2974 65.9278C90.2974 59.391 90.2974 39.745 90.2974 39.745C90.2974 39.745 90.333 38.5016 89.5864 38.9279C88.9821 39.2476 87.5601 40.0647 87.0269 40.491C86.4225 40.9884 86.5647 42.1608 86.5647 42.1608C86.5647 42.1608 86.5647 59.9949 86.5647 65.9278C86.5647 66.2475 86.2803 66.4252 86.1381 66.4962C84.7872 67.2778 83.8984 68.7344 83.8984 70.4041C83.8984 72.8909 85.9248 74.9159 88.4133 74.9159C90.9018 74.9159 92.9282 72.8909 92.9282 70.4041C92.9993 68.7344 92.0749 67.2778 90.724 66.4962Z" fill="#2D5077"/>
</svg>
