<svg width="97" height="87" viewBox="0 0 97 87" fill="none" xmlns="http://www.w3.org/2000/svg">
<path d="M95.3926 34.4271L50.0313 1.21007C49.1426 0.570601 47.9694 0.570601 47.0807 1.21007L1.71928 34.4271C0.617239 35.2442 0.368391 36.8073 1.18603 37.9086C2.00367 39.01 3.56788 39.2586 4.66992 38.4415L48.5737 6.32585L92.4775 38.4415C92.9041 38.7613 93.4374 38.9389 93.9351 38.9389C94.7172 38.9389 95.4637 38.5836 95.9614 37.9086C96.7435 36.8073 96.5302 35.2442 95.3926 34.4271Z" fill="#92C7D9"/>
<path d="M83.3767 39.0098C81.9903 39.0098 80.8883 40.1111 80.8883 41.4966V81.0728H60.9804V59.4729C60.9804 52.6163 55.3992 47.0387 48.5381 47.0387C41.677 47.0387 36.0957 52.6163 36.0957 59.4729V81.0728H16.1879V41.4966C16.1879 40.1111 15.0858 39.0098 13.6994 39.0098C12.313 39.0098 11.2109 40.1111 11.2109 41.4966V83.5596C11.2109 84.9451 12.313 86.0465 13.6994 86.0465H38.5842C39.8995 86.0465 40.966 85.0517 41.0726 83.7373C41.0726 83.6662 41.0726 83.6307 41.0726 83.5596V59.4729C41.0726 55.3518 44.4143 52.0124 48.5381 52.0124C52.6618 52.0124 56.0035 55.3518 56.0035 59.4729V83.5596C56.0035 83.6307 56.0035 83.7017 56.0035 83.7373C56.1101 85.0162 57.1766 86.0465 58.492 86.0465H83.3767C84.7632 86.0465 85.8652 84.9451 85.8652 83.5596V41.4966C85.8652 40.1111 84.7632 39.0098 83.3767 39.0098Z" fill="#92C7D9"/>
</svg>
