<svg width="218" height="74" viewBox="0 0 218 74" fill="none" xmlns="http://www.w3.org/2000/svg">
<path d="M68.7366 51.4005L76.5318 43.9774V37.808H53.2454V45.0332H65.4996L58.299 52.2583L59.5872 57.5369H62.9893C66.7548 57.5369 68.9348 58.8896 68.9348 61.232V61.331C68.9348 63.4424 67.3163 64.8281 64.773 64.8281C61.8333 64.8281 59.5542 63.7064 57.209 61.034C57.143 60.9681 57.1099 60.9351 57.0108 60.9021C56.8457 60.7701 56.5814 60.7701 56.4163 60.9351C50.5369 65.7188 43.0721 68.3912 35.4421 68.3912C17.1433 68.3912 2.2466 53.512 2.2466 35.2347C2.2466 16.9574 17.1102 2.01221 35.4421 2.01221C53.7739 2.01221 68.6375 16.8914 68.6375 35.1687C68.6375 35.4326 68.8687 35.6636 69.133 35.6636C69.3972 35.6636 69.6284 35.4326 69.6284 35.1687C69.6284 26.03 66.0611 17.4522 59.6202 11.0189C53.1463 4.55255 44.5584 1.02246 35.4421 1.02246C26.3257 1.02246 17.7048 4.55255 11.2308 11.0189C4.78993 17.4852 1.22266 26.063 1.22266 35.1687C1.22266 44.2744 4.78993 52.8851 11.2308 59.3185C17.7048 65.7848 26.2927 69.3149 35.409 69.3149C39.4057 69.3149 43.3363 68.6221 47.0687 67.2694C50.5369 66.0158 53.7739 64.2012 56.6475 61.9248C59.0918 64.5641 61.6021 65.7518 64.7399 65.7518C67.8448 65.7518 69.8927 63.9373 69.8927 61.232V61.133C69.8927 59.6484 69.2321 58.4277 67.9439 57.6029C66.7217 56.8441 65.0372 56.4482 62.9233 56.4482H60.3139L59.356 52.4892L67.8778 43.9114H54.2033V38.6988H75.4748V43.4166L66.5566 51.9284L67.5475 52.0933C73.1296 53.0501 75.9702 55.9534 75.9702 60.8031V60.9021C75.9702 67.0385 71.4121 71.1624 64.6078 71.1624C62.4939 71.1624 60.5451 70.8655 58.7945 70.2387C58.5302 70.1397 58.233 70.3047 58.1339 70.5686C58.0348 70.8325 58.1999 71.1295 58.4642 71.2284C60.3469 71.8553 62.3948 72.1852 64.6078 72.1852C68.2742 72.1852 71.4121 71.0965 73.6581 68.985C75.8051 66.9725 76.9942 64.1023 76.9942 60.9021V60.8031C77.0272 55.8874 74.1866 52.5882 68.7366 51.4005Z" fill="white"/>
<path d="M58.8903 74.0001C60.5686 74.0001 61.9291 72.6412 61.9291 70.9649C61.9291 69.2886 60.5686 67.9297 58.8903 67.9297C57.2121 67.9297 55.8516 69.2886 55.8516 70.9649C55.8516 72.6412 57.2121 74.0001 58.8903 74.0001Z" fill="white"/>
<path d="M3.03879 47.3761C4.71706 47.3761 6.07758 46.0172 6.07758 44.3409C6.07758 42.6646 4.71706 41.3057 3.03879 41.3057C1.36051 41.3057 0 42.6646 0 44.3409C0 46.0172 1.36051 47.3761 3.03879 47.3761Z" fill="white"/>
<path d="M49.5779 7.58802C51.2561 7.58802 52.6166 6.2291 52.6166 4.5528C52.6166 2.87649 51.2561 1.51758 49.5779 1.51758C47.8996 1.51758 46.5391 2.87649 46.5391 4.5528C46.5391 6.2291 47.8996 7.58802 49.5779 7.58802Z" fill="white"/>
<path d="M68.7366 50.3781L76.5318 42.955V36.7856H53.2454V44.0107H65.4996L58.299 51.2358L59.5872 56.5145H62.9893C66.7548 56.5145 68.9348 57.8671 68.9348 60.2095V60.3085C68.9348 62.42 67.3163 63.8056 64.773 63.8056C61.8333 63.8056 59.5542 62.6839 57.209 60.0116C57.143 59.9456 57.1099 59.9126 57.0108 59.8796C56.8457 59.7477 56.5814 59.7477 56.4163 59.9126C50.5369 64.6964 43.0721 67.3687 35.4421 67.3687C17.1102 67.3357 2.2466 52.4565 2.2466 34.1792C2.2466 15.9019 17.1102 1.02274 35.4421 1.02274C53.7739 1.02274 68.6375 15.9019 68.6375 34.1792C68.6375 34.4432 68.8687 34.6741 69.133 34.6741C69.3972 34.6741 69.6284 34.4432 69.6284 34.1792C69.6284 25.0406 66.0611 16.4628 59.6202 10.0294C53.1463 3.56308 44.5584 0 35.4421 0C26.3257 0 17.7048 3.56308 11.2308 9.99643C4.78993 16.4628 1.22266 25.0406 1.22266 34.1792C1.22266 43.3179 4.78993 51.8957 11.2308 58.329C17.7048 64.7954 26.2927 68.3255 35.409 68.3255C39.4057 68.3255 43.3363 67.6326 47.0687 66.28C50.5369 65.0263 53.7739 63.2118 56.6475 60.9354C59.0918 63.5747 61.6021 64.7624 64.7399 64.7624C67.8448 64.7624 69.8927 62.9478 69.8927 60.2425V60.1436C69.8927 58.6589 69.2321 57.4383 67.9439 56.6135C66.7217 55.8547 65.0372 55.4588 62.9233 55.4588H60.3139L59.356 51.4998L67.8778 42.922H54.2033V37.7093H75.4748V42.4271L66.5566 50.9389L67.5475 51.1039C73.1296 52.0606 75.9702 54.9639 75.9702 59.8136V59.9126C75.9702 66.049 71.4121 70.173 64.6078 70.173C62.4939 70.173 60.5451 69.8761 58.7945 69.2492C58.5302 69.1502 58.233 69.3152 58.1339 69.5791C58.0348 69.8431 58.1999 70.14 58.4642 70.239C60.3469 70.8658 62.3948 71.1957 64.6078 71.1957C68.2742 71.1957 71.4121 70.107 73.6581 67.9955C75.8051 65.9831 76.9942 63.1128 76.9942 59.9126V59.8136C77.0272 54.8649 74.1866 51.5658 68.7366 50.3781Z" fill="#124174"/>
<path d="M58.8903 72.9777C60.5686 72.9777 61.9291 71.6188 61.9291 69.9424C61.9291 68.2661 60.5686 66.9072 58.8903 66.9072C57.2121 66.9072 55.8516 68.2661 55.8516 69.9424C55.8516 71.6188 57.2121 72.9777 58.8903 72.9777Z" fill="#92C7D9"/>
<path d="M3.03879 46.3536C4.71706 46.3536 6.07758 44.9947 6.07758 43.3184C6.07758 41.6421 4.71706 40.2832 3.03879 40.2832C1.36051 40.2832 0 41.6421 0 43.3184C0 44.9947 1.36051 46.3536 3.03879 46.3536Z" fill="#92C7D9"/>
<path d="M49.5779 6.56556C51.2561 6.56556 52.6166 5.20664 52.6166 3.53034C52.6166 1.85403 51.2561 0.495117 49.5779 0.495117C47.8996 0.495117 46.5391 1.85403 46.5391 3.53034C46.5391 5.20664 47.8996 6.56556 49.5779 6.56556Z" fill="#92C7D9"/>
<path d="M89.7109 32.2329V32.1669C89.7109 27.0532 93.7406 22.8633 99.2897 22.8633C104.839 22.8633 108.835 26.9872 108.835 32.1009V32.1669C108.835 37.2806 104.806 41.4705 99.2567 41.4705C93.7076 41.5035 89.7109 37.3466 89.7109 32.2329ZM104.707 32.2329V32.1669C104.707 29.0987 102.428 26.5253 99.2567 26.5253C96.0858 26.5253 93.8397 29.0327 93.8397 32.1339V32.1999C93.8397 35.2681 96.1188 37.8414 99.2897 37.8414C102.494 37.8414 104.707 35.3341 104.707 32.2329Z" fill="#124174"/>
<path d="M113.523 38.1715L123.433 26.6575H113.854V23.1934H128.552V26.1956L118.643 37.7096H128.552V41.1737H113.556V38.1715H113.523Z" fill="#124174"/>
<path d="M133.145 32.2329V32.1669C133.145 27.0532 137.174 22.8633 142.723 22.8633C148.272 22.8633 152.269 26.9872 152.269 32.1009V32.1669C152.269 37.2806 148.239 41.4705 142.69 41.4705C137.108 41.5035 133.145 37.3466 133.145 32.2329ZM148.14 32.2329V32.1669C148.14 29.0987 145.861 26.5253 142.69 26.5253C139.519 26.5253 137.273 29.0327 137.273 32.1339V32.1999C137.273 35.2681 139.552 37.8414 142.723 37.8414C145.927 37.8414 148.14 35.3341 148.14 32.2329Z" fill="#124174"/>
<path d="M158.383 23.1934H162.049L170.472 34.2785V23.1934H174.369V41.1737H171L162.28 29.7587V41.1737H158.383V23.1934Z" fill="#124174"/>
<path d="M180.445 32.2329V32.1669C180.445 27.0532 184.475 22.8633 190.024 22.8633C195.573 22.8633 199.57 26.9872 199.57 32.1009V32.1669C199.57 37.2806 195.54 41.4705 189.991 41.4705C184.442 41.5035 180.445 37.3466 180.445 32.2329ZM195.441 32.2329V32.1669C195.441 29.0987 193.162 26.5253 189.991 26.5253C186.82 26.5253 184.574 29.0327 184.574 32.1339V32.1999C184.574 35.2681 186.853 37.8414 190.024 37.8414C193.195 37.8414 195.441 35.3341 195.441 32.2329Z" fill="#124174"/>
<path d="M204.523 38.3695L207.265 35.7631C208.487 37.1488 209.775 37.9076 211.625 37.9076C213.111 37.9076 214.168 37.0498 214.168 35.7301V35.6642C214.168 34.2125 212.847 33.3877 210.634 33.3877H208.983L208.355 30.8804L212.649 26.5585H205.58V23.1934H217.736V26.1626L213.177 30.5175C215.622 30.9134 218 32.2 218 35.5652V35.6312C218 39.0293 215.523 41.5037 211.526 41.5037C208.289 41.5037 206.043 40.217 204.523 38.3695Z" fill="#92C7D9"/>
</svg>
