<svg width="82" height="77" viewBox="0 0 82 77" fill="none" xmlns="http://www.w3.org/2000/svg">
<path d="M76.8501 12.9138H60.4973V8.43745C60.4973 4.17431 57.0845 0.657227 52.8896 0.657227H28.9292C24.7343 0.657227 21.3216 4.13878 21.3216 8.43745V12.9138H4.96875C2.23143 12.9138 0.0273438 15.1875 0.0273438 17.9585V48.2623C0.0273438 50.1452 1.09383 51.886 2.69357 52.7386V71.0346C2.69357 73.8057 4.89765 76.0794 7.63498 76.0794H74.1839C76.9212 76.0794 79.1253 73.8057 79.1253 71.0346V52.7386C80.725 51.886 81.7915 50.1452 81.7915 48.2623V17.9585C81.7915 15.1875 79.5519 12.9138 76.8501 12.9138ZM50.6145 8.82825V12.9138H31.2044V8.82825H50.6145ZM52.8896 6.12825H28.9292C27.6849 6.12825 26.654 7.15852 26.654 8.47299V12.9493H25.8719V8.47299C25.8719 6.76773 27.2228 5.34669 28.9292 5.34669H52.8896C54.5605 5.34669 55.9469 6.73221 55.9469 8.47299V12.9493H55.1648V8.47299C55.1648 7.15852 54.1339 6.12825 52.8896 6.12825ZM42.2248 46.9479H39.5585C36.8212 46.9479 34.6171 49.2216 34.6171 51.9926V52.8452L4.89763 48.6531C4.71988 48.6176 4.57767 48.44 4.57767 48.2623V17.9585C4.57767 17.7453 4.75546 17.5677 4.96875 17.5677H76.8146C77.0279 17.5677 77.2056 17.7453 77.2056 17.9585V48.2623C77.2056 48.4755 77.0634 48.6176 76.8857 48.6531L47.1662 52.8452V51.9926C47.1662 49.2216 44.9621 46.9479 42.2248 46.9479ZM42.6158 60.1636C42.6158 60.3768 42.4381 60.5544 42.2248 60.5544H39.5585C39.3452 60.5544 39.1675 60.3768 39.1675 60.1636V51.9926C39.1675 51.7794 39.3452 51.6018 39.5585 51.6018H42.2248C42.4381 51.6018 42.6158 51.7794 42.6158 51.9926V60.1636ZM7.2439 53.6979L34.6171 57.5702V60.1991C34.6171 62.9702 36.8212 65.2439 39.5585 65.2439H42.2248C44.9621 65.2439 47.1662 62.9702 47.1662 60.1991V57.5702L74.5394 53.6979V71.0702C74.5394 71.2833 74.3616 71.461 74.1484 71.461H7.59939C7.38609 71.461 7.20835 71.2833 7.20835 71.0702V53.6979H7.2439Z" fill="#2D5077"/>
</svg>
