<svg width="86" height="85" viewBox="0 0 86 85" fill="none" xmlns="http://www.w3.org/2000/svg">
<path d="M60.6865 28.6565L59.7622 25.6723C58.6246 22.2618 54.9275 20.45 51.5147 21.6223C49.595 22.2618 48.1019 23.7539 47.462 25.6723L46.5377 28.6565C45.7557 31.1789 45.6135 33.8434 46.0756 36.4368C46.5022 38.6039 47.8886 40.4868 49.8439 41.5525L48.8129 64.2893C48.6707 65.5683 49.0973 66.8117 49.9505 67.7709C51.7991 69.7959 54.9275 69.938 56.9182 68.0906C57.0249 67.984 57.1315 67.8775 57.2382 67.7709C58.0914 66.8472 58.4824 65.6393 58.3758 64.3959L57.3448 41.5525C59.3001 40.5223 60.6865 38.6394 61.1131 36.4723C61.6108 33.8434 61.433 31.1789 60.6865 28.6565ZM58.3402 35.9394C58.0203 37.5026 56.9182 38.7815 55.3896 39.3144C54.8208 39.5276 54.4298 40.096 54.4653 40.6999L55.5318 64.5735C55.5674 65.0354 55.4252 65.4972 55.1052 65.8525C54.252 66.7051 52.8656 66.7051 52.0124 65.8525C51.6924 65.4617 51.5147 64.9643 51.5858 64.4669L52.6523 40.6999C52.6878 40.096 52.2968 39.5276 51.728 39.3144C50.1994 38.7815 49.0973 37.5026 48.7774 35.9394C48.3863 33.7723 48.5285 31.5697 49.1684 29.4736L50.0927 26.4894C50.8037 24.6065 52.9011 23.6118 54.8208 24.3223C55.8162 24.6776 56.6338 25.4947 56.9893 26.4894L57.9136 29.4736C58.5891 31.5697 58.7313 33.8078 58.3402 35.9394Z" fill="#92C7D9"/>
<path d="M38.7507 21.2676C37.9686 21.2676 37.3287 21.907 37.3287 22.6886V34.8386L33.4894 38.6754C33.205 38.9596 33.0628 39.3504 33.0628 39.7412L34.307 64.503C34.3426 65.0359 34.1293 65.5687 33.7738 65.9595C32.9917 66.7411 31.7474 66.7411 30.9653 65.9595C30.6098 65.5687 30.3965 65.0359 30.4321 64.503L31.6763 39.7412C31.7119 39.3504 31.5341 38.9596 31.2497 38.6754L27.4104 34.8386V22.6886C27.4104 21.907 26.7705 21.2676 25.9884 21.2676C25.2063 21.2676 24.5664 21.907 24.5664 22.6886V35.407C24.5664 35.7978 24.7086 36.1531 24.993 36.4017L28.7968 40.203L27.5881 64.3253C27.4459 66.9543 29.5078 69.1924 32.1385 69.3345C34.7692 69.4766 37.0088 67.4161 37.151 64.7872C37.151 64.6451 37.151 64.4674 37.151 64.3253L35.9423 40.203L39.7461 36.4017C39.995 36.1531 40.1727 35.7623 40.1727 35.407V22.6886C40.1727 21.907 39.5328 21.2676 38.7507 21.2676Z" fill="#92C7D9"/>
<path d="M30.2501 21.2676C29.468 21.2676 28.8281 21.9071 28.8281 22.6886V33.986C28.8281 34.7675 29.468 35.407 30.2501 35.407C31.0322 35.407 31.6721 34.7675 31.6721 33.986V22.6886C31.6721 21.9071 31.0322 21.2676 30.2501 21.2676Z" fill="#92C7D9"/>
<path d="M34.5196 21.2676C33.7376 21.2676 33.0977 21.9071 33.0977 22.6886V33.986C33.0977 34.7675 33.7376 35.407 34.5196 35.407C35.3017 35.407 35.9416 34.7675 35.9416 33.986V22.6886C35.9061 21.9071 35.3017 21.2676 34.5196 21.2676Z" fill="#92C7D9"/>
<path d="M42.9814 0.0585938C19.5187 0.0585938 0.535156 19.0651 0.535156 42.4769C0.535156 65.8886 19.5542 84.8952 42.9814 84.8952C66.4087 84.8952 85.4277 65.8886 85.4277 42.4769C85.4277 19.0651 66.4442 0.09412 42.9814 0.0585938ZM42.9814 82.0886C21.0829 82.0886 3.34358 64.361 3.34358 42.4769C3.34358 20.5927 21.1184 2.90069 42.9814 2.90069C64.8445 2.90069 82.6193 20.6283 82.6193 42.5124C82.5837 64.361 64.88 82.0531 42.9814 82.0886Z" fill="#92C7D9"/>
<path d="M47.6026 69.0496C47.5315 68.268 46.8206 67.6996 46.074 67.7707C46.0385 67.7707 46.0385 67.7707 46.0029 67.7707C44.0121 68.0194 41.9858 68.0194 39.995 67.7707C39.2129 67.6641 38.5019 68.2325 38.4308 69.0141C38.3242 69.7957 38.893 70.5062 39.6751 70.5772C41.8792 70.8259 44.1188 70.8259 46.3229 70.5772C47.1049 70.5062 47.6737 69.8312 47.6026 69.0496Z" fill="#92C7D9"/>
<path d="M64.6663 24.2522C64.1686 23.6482 63.2799 23.5772 62.6756 24.0746C62.0712 24.5719 62.0001 25.4601 62.4978 26.064C71.0297 36.189 70.3898 51.1455 61.0047 60.4889C60.4359 61.0573 60.4359 61.9455 61.0047 62.4784C61.5735 63.0468 62.4623 63.0468 62.9955 62.4784C73.4115 52.1402 74.1225 35.514 64.6663 24.2522Z" fill="#92C7D9"/>
<path d="M49.6624 14.9794C44.1166 13.665 38.322 14.0202 32.9896 16.0097C32.243 16.2939 31.8875 17.111 32.1719 17.8215C32.3852 18.39 32.9185 18.7452 33.4873 18.7452C33.665 18.7452 33.8072 18.7097 33.985 18.6387C38.7842 16.8623 44.01 16.5426 48.9869 17.715C49.7335 17.8926 50.5156 17.4308 50.6933 16.6847C50.9066 15.9387 50.4445 15.1926 49.6624 14.9794Z" fill="#92C7D9"/>
<path d="M24.9512 60.4526C20.1875 55.6921 17.5213 49.2263 17.5213 42.4763C17.5213 37.0763 19.2277 31.854 22.3916 27.4843C22.8538 26.8448 22.7471 25.9566 22.1072 25.4948C21.4673 25.033 20.5786 25.1395 20.1164 25.779C20.1164 25.779 20.1164 25.8145 20.0809 25.8145C11.9045 37.0408 13.1132 52.5658 22.9249 62.4065C23.4937 62.9749 24.3824 62.9749 24.9156 62.4065C25.4844 61.9092 25.4844 61.021 24.9512 60.4526Z" fill="#92C7D9"/>
</svg>
